<svg xmlns="http://www.w3.org/2000/svg" viewBox="0 0 500 500"><g id="background-simple--inject-62"><path d="M389,81.86s-44-38-103-23.41-85,64.39-119.53,98.12c-18.11,17.66-44.27,23.62-65.56,37-68.08,42.8-61,143.57-10.6,183,43.67,34.08,99.3,39.1,172.5,17S388.33,358.25,435.27,290.2,443,133.34,389,81.86Z" style="fill:#C060A1"></path><path d="M389,81.86s-44-38-103-23.41-85,64.39-119.53,98.12c-18.11,17.66-44.27,23.62-65.56,37-68.08,42.8-61,143.57-10.6,183,43.67,34.08,99.3,39.1,172.5,17S388.33,358.25,435.27,290.2,443,133.34,389,81.86Z" style="fill:#fff;opacity:0.8"></path></g></svg>