<svg xmlns="http://www.w3.org/2000/svg" viewBox="0 0 500 500"><!--177-Podcast--><g id="background-simple--inject-78"><path d="M355.33,264.54c-11.44-16.76-13-39.14-20.87-57.55s-19.23-36.51-33.57-50.42c-35.08-34-71.81-17.93-110.69-6.83-30.93,8.83-84.92.33-96.85,37.61-12.09,37.75,15.23,87.81,33.41,120.23,16.79,29.95,46.88,81.2,85.22,80.89,43.75-.34,48.47-71.19,92.83-45.59,35.43,20.46,84.18,35.87,108-5C438.08,294.55,374.21,292.21,355.33,264.54Z" style="fill:#407BFF"></path><path d="M355.33,264.54c-11.44-16.76-13-39.14-20.87-57.55s-19.23-36.51-33.57-50.42c-35.08-34-71.81-17.93-110.69-6.83-30.93,8.83-84.92.33-96.85,37.61-12.09,37.75,15.23,87.81,33.41,120.23,16.79,29.95,46.88,81.2,85.22,80.89,43.75-.34,48.47-71.19,92.83-45.59,35.43,20.46,84.18,35.87,108-5C438.08,294.55,374.21,292.21,355.33,264.54Z" style="fill:#fff;opacity:0.9"></path></g><g id="Shadow--inject-78"><ellipse id="path--inject-78" cx="250" cy="416.24" rx="193.89" ry="11.32" style="fill:#f5f5f5"></ellipse></g></svg>